<mxfile host="app.diagrams.net" modified="2024-04-09T17:50:29.265Z" agent="Mozilla/5.0 (Windows NT 10.0; Win64; x64) AppleWebKit/537.36 (KHTML, like Gecko) Chrome/123.0.0.0 Safari/537.36" etag="yPWhJyUW7T1tyUAT0nvc" version="24.2.3" type="github">
  <diagram name="Page-1" id="b5b7bab2-c9e2-2cf4-8b2a-24fd1a2a6d21">
    <mxGraphModel dx="3827" dy="1491" grid="1" gridSize="10" guides="1" tooltips="1" connect="1" arrows="1" fold="1" page="1" pageScale="1" pageWidth="827" pageHeight="1169" background="none" math="0" shadow="0">
      <root>
        <mxCell id="0" />
        <mxCell id="1" parent="0" />
        <mxCell id="E3f_pJLwGpMYrvsGHU3P-1" value="&lt;p style=&quot;margin:0px;margin-top:6px;text-align:center;&quot;&gt;&lt;br&gt;&lt;/p&gt;" style="align=left;overflow=fill;html=1;dropTarget=0;whiteSpace=wrap;" vertex="1" parent="1">
          <mxGeometry x="-140" y="70" width="1620" height="730" as="geometry" />
        </mxCell>
        <mxCell id="E3f_pJLwGpMYrvsGHU3P-2" value="" style="shape=component;jettyWidth=8;jettyHeight=4;" vertex="1" parent="E3f_pJLwGpMYrvsGHU3P-1">
          <mxGeometry x="1" width="20" height="20" relative="1" as="geometry">
            <mxPoint x="-24" y="4" as="offset" />
          </mxGeometry>
        </mxCell>
        <mxCell id="E3f_pJLwGpMYrvsGHU3P-15" value="" style="group" vertex="1" connectable="0" parent="1">
          <mxGeometry x="-120" y="96" width="520" height="74" as="geometry" />
        </mxCell>
        <mxCell id="E3f_pJLwGpMYrvsGHU3P-3" value="" style="shape=folder;fontStyle=1;spacingTop=10;tabWidth=90;tabHeight=20;tabPosition=left;html=1;whiteSpace=wrap;" vertex="1" parent="E3f_pJLwGpMYrvsGHU3P-15">
          <mxGeometry y="4" width="520" height="70" as="geometry" />
        </mxCell>
        <mxCell id="E3f_pJLwGpMYrvsGHU3P-14" value="Source Code" style="text;html=1;align=center;verticalAlign=middle;resizable=0;points=[];autosize=1;strokeColor=none;fillColor=none;" vertex="1" parent="E3f_pJLwGpMYrvsGHU3P-15">
          <mxGeometry width="90" height="30" as="geometry" />
        </mxCell>
        <mxCell id="E3f_pJLwGpMYrvsGHU3P-4" value="&lt;p style=&quot;margin:0px;margin-top:6px;text-align:center;&quot;&gt;&lt;span style=&quot;background-color: initial;&quot;&gt;Database Scripts&lt;/span&gt;&lt;br&gt;&lt;/p&gt;" style="align=left;overflow=fill;html=1;dropTarget=0;whiteSpace=wrap;" vertex="1" parent="1">
          <mxGeometry x="-110" y="126" width="160" height="30" as="geometry" />
        </mxCell>
        <mxCell id="E3f_pJLwGpMYrvsGHU3P-5" value="" style="shape=component;jettyWidth=8;jettyHeight=4;" vertex="1" parent="E3f_pJLwGpMYrvsGHU3P-4">
          <mxGeometry x="1" width="20" height="20" relative="1" as="geometry">
            <mxPoint x="-24" y="4" as="offset" />
          </mxGeometry>
        </mxCell>
        <mxCell id="E3f_pJLwGpMYrvsGHU3P-10" value="&lt;p style=&quot;margin:0px;margin-top:6px;text-align:center;&quot;&gt;&lt;span style=&quot;background-color: initial;&quot;&gt;Frontend Code&lt;/span&gt;&lt;br&gt;&lt;/p&gt;" style="align=left;overflow=fill;html=1;dropTarget=0;whiteSpace=wrap;" vertex="1" parent="1">
          <mxGeometry x="60" y="126" width="160" height="30" as="geometry" />
        </mxCell>
        <mxCell id="E3f_pJLwGpMYrvsGHU3P-11" value="" style="shape=component;jettyWidth=8;jettyHeight=4;" vertex="1" parent="E3f_pJLwGpMYrvsGHU3P-10">
          <mxGeometry x="1" width="20" height="20" relative="1" as="geometry">
            <mxPoint x="-24" y="4" as="offset" />
          </mxGeometry>
        </mxCell>
        <mxCell id="E3f_pJLwGpMYrvsGHU3P-12" value="&lt;p style=&quot;margin:0px;margin-top:6px;text-align:center;&quot;&gt;&lt;span style=&quot;background-color: initial;&quot;&gt;Backend Code&lt;/span&gt;&lt;br&gt;&lt;/p&gt;" style="align=left;overflow=fill;html=1;dropTarget=0;whiteSpace=wrap;" vertex="1" parent="1">
          <mxGeometry x="230" y="126" width="160" height="30" as="geometry" />
        </mxCell>
        <mxCell id="E3f_pJLwGpMYrvsGHU3P-13" value="" style="shape=component;jettyWidth=8;jettyHeight=4;" vertex="1" parent="E3f_pJLwGpMYrvsGHU3P-12">
          <mxGeometry x="1" width="20" height="20" relative="1" as="geometry">
            <mxPoint x="-24" y="4" as="offset" />
          </mxGeometry>
        </mxCell>
        <mxCell id="E3f_pJLwGpMYrvsGHU3P-16" value="" style="group" vertex="1" connectable="0" parent="1">
          <mxGeometry x="-120" y="310" width="570" height="74" as="geometry" />
        </mxCell>
        <mxCell id="E3f_pJLwGpMYrvsGHU3P-17" value="" style="shape=folder;fontStyle=1;spacingTop=10;tabWidth=120;tabHeight=16;tabPosition=left;html=1;whiteSpace=wrap;" vertex="1" parent="E3f_pJLwGpMYrvsGHU3P-16">
          <mxGeometry y="4" width="549" height="70" as="geometry" />
        </mxCell>
        <mxCell id="E3f_pJLwGpMYrvsGHU3P-18" value="Executable code" style="text;html=1;align=center;verticalAlign=middle;resizable=0;points=[];autosize=1;strokeColor=none;fillColor=none;" vertex="1" parent="E3f_pJLwGpMYrvsGHU3P-16">
          <mxGeometry x="-6.41049671977507" y="-3" width="110" height="30" as="geometry" />
        </mxCell>
        <mxCell id="E3f_pJLwGpMYrvsGHU3P-23" value="&lt;p style=&quot;margin:0px;margin-top:6px;text-align:center;&quot;&gt;&lt;span style=&quot;background-color: initial;&quot;&gt;Client Application&lt;/span&gt;&lt;br&gt;&lt;/p&gt;" style="align=left;overflow=fill;html=1;dropTarget=0;whiteSpace=wrap;" vertex="1" parent="E3f_pJLwGpMYrvsGHU3P-16">
          <mxGeometry x="370.00342080599813" y="30" width="170.94657919400188" height="30" as="geometry" />
        </mxCell>
        <mxCell id="E3f_pJLwGpMYrvsGHU3P-24" value="" style="shape=component;jettyWidth=8;jettyHeight=4;" vertex="1" parent="E3f_pJLwGpMYrvsGHU3P-23">
          <mxGeometry x="1" width="20" height="20" relative="1" as="geometry">
            <mxPoint x="-24" y="4" as="offset" />
          </mxGeometry>
        </mxCell>
        <mxCell id="E3f_pJLwGpMYrvsGHU3P-19" value="&lt;p style=&quot;margin:0px;margin-top:6px;text-align:center;&quot;&gt;&lt;span style=&quot;background-color: initial;&quot;&gt;Server Application&lt;/span&gt;&lt;br&gt;&lt;/p&gt;" style="align=left;overflow=fill;html=1;dropTarget=0;whiteSpace=wrap;" vertex="1" parent="1">
          <mxGeometry x="-110" y="340" width="160" height="30" as="geometry" />
        </mxCell>
        <mxCell id="E3f_pJLwGpMYrvsGHU3P-20" value="" style="shape=component;jettyWidth=8;jettyHeight=4;" vertex="1" parent="E3f_pJLwGpMYrvsGHU3P-19">
          <mxGeometry x="1" width="20" height="20" relative="1" as="geometry">
            <mxPoint x="-24" y="4" as="offset" />
          </mxGeometry>
        </mxCell>
        <mxCell id="E3f_pJLwGpMYrvsGHU3P-21" value="&lt;p style=&quot;margin:0px;margin-top:6px;text-align:center;&quot;&gt;&lt;span style=&quot;background-color: initial;&quot;&gt;Database Deployment&lt;/span&gt;&lt;br&gt;&lt;/p&gt;" style="align=left;overflow=fill;html=1;dropTarget=0;whiteSpace=wrap;" vertex="1" parent="1">
          <mxGeometry x="60" y="340" width="180" height="30" as="geometry" />
        </mxCell>
        <mxCell id="E3f_pJLwGpMYrvsGHU3P-22" value="" style="shape=component;jettyWidth=8;jettyHeight=4;" vertex="1" parent="E3f_pJLwGpMYrvsGHU3P-21">
          <mxGeometry x="1" width="20" height="20" relative="1" as="geometry">
            <mxPoint x="-24" y="4" as="offset" />
          </mxGeometry>
        </mxCell>
      </root>
    </mxGraphModel>
  </diagram>
</mxfile>
